<?xml version="1.0" encoding="utf-8"?>
<!-- Generator: Adobe Illustrator 22.1.0, SVG Export Plug-In . SVG Version: 6.00 Build 0)  -->
<svg version="1.1" id="Layer_1" xmlns="http://www.w3.org/2000/svg" xmlns:xlink="http://www.w3.org/1999/xlink" x="0px" y="0px"
	 viewBox="0 0 792 612" style="enable-background:new 0 0 792 612;" xml:space="preserve">
<style type="text/css">
	.st0{fill:#FFFFFF;stroke:#000000;stroke-miterlimit:10;}
	.st1{fill:#9A9A98;}
	.st2{fill:#C9C4C1;}
	.st3{fill:#5E5F5F;}
</style>
<path class="st0" d="M711.8,505.8"/>
<path class="st0" d="M711.8,505.8"/>
<path class="st0" d="M711.8,505.8"/>
<path class="st0" d="M711.8,505.8"/>
<path class="st0" d="M711.8,506.5"/>
<path class="st0" d="M711.8,505.8"/>
<path class="st0" d="M711.8,505.8"/>
<polygon class="st1" points="533.4,459.5 511.2,439.2 248.8,439.1 226.6,459.5 "/>
<rect x="226.6" y="459.5" width="306.8" height="38.5"/>
<rect x="247.8" y="411.9" width="264.3" height="27.2"/>
<polygon class="st1" points="512.1,411.9 493,396.4 266.9,396.4 247.8,411.9 "/>
<rect x="266.3" y="377.1" width="227.6" height="19.3"/>
<polygon class="st1" points="493.8,377.1 477.3,369.3 282.8,369.3 266.3,377.1 "/>
<rect x="283.1" y="216.5" class="st2" width="194.6" height="152.8"/>
<rect x="214.7" y="425.5" width="4.3" height="72.4"/>
<rect x="247.3" y="318.8" transform="matrix(0.8332 0.553 -0.553 0.8332 250.4001 -74.7477)" width="3.5" height="117.8"/>
<rect x="510.3" y="320.1" transform="matrix(0.8285 -0.56 0.56 0.8285 -124.3949 351.7621)" width="3.5" height="117.8"/>
<rect x="542.1" y="425.5" width="4.3" height="72.4"/>
<circle class="st3" cx="454.8" cy="300.6" r="6.7"/>
</svg>
